<svg width="73" height="73" viewBox="0 0 73 73" fill="none" xmlns="http://www.w3.org/2000/svg">
<g clip-path="url(#clip0)">
<path d="M36.5499 0C16.3776 0 0 16.3776 0 36.5499C0 56.7223 16.3776 73.0999 36.5499 73.0999C56.7223 73.0999 73.0999 56.7223 73.0999 36.5499C73.0999 16.3776 56.6224 0 36.5499 0ZM36.5499 68.9056C18.5746 68.9056 4.09439 54.4254 4.09439 36.5499C4.09439 18.6744 18.5746 4.09439 36.5499 4.09439C54.4254 4.09439 68.9056 18.5746 68.9056 36.5499C68.9056 54.5253 54.4254 68.9056 36.5499 68.9056Z" fill="white"/>
<path d="M35.9505 20.5717C39.246 20.5717 41.9423 17.8754 41.9423 14.5799C41.9423 11.2844 39.246 8.58813 35.9505 8.58813C32.655 8.58813 29.9587 11.2844 29.9587 14.5799C29.9587 17.8754 32.655 20.5717 35.9505 20.5717ZM35.9505 11.9835C37.3486 11.9835 38.4471 13.082 38.4471 14.4801C38.4471 15.8781 37.3486 16.9766 35.9505 16.9766C34.5524 16.9766 33.454 15.8781 33.454 14.4801C33.454 13.082 34.5524 11.9835 35.9505 11.9835Z" fill="white"/>
<path d="M53.2286 18.1755L41.4447 22.4696H31.0589L19.2751 18.1755C17.178 17.4765 14.8811 18.3752 13.9823 20.1728C13.483 21.2713 13.3832 22.4696 13.8825 23.5681C14.3818 24.6666 15.1807 25.4655 16.2792 25.865L27.0644 29.7596C27.4639 29.9594 27.7635 30.2589 27.7635 30.7583V42.8417L24.9673 58.0209C24.468 60.6174 25.9659 63.0141 28.4625 63.6133C29.7607 63.9128 31.0589 63.7131 32.1574 63.0141C33.2559 62.315 33.955 61.2165 34.2546 60.0182L36.3517 50.9306L38.4488 59.9183C38.6486 61.2165 39.4475 62.315 40.546 63.0141C41.3449 63.5134 42.1438 63.813 43.0425 63.813C43.442 63.813 43.8414 63.813 44.141 63.7131C46.5377 63.1139 48.1356 60.6174 47.6362 58.1208L44.6403 42.9416V30.8581C44.6403 30.4587 44.9399 30.0592 45.3394 29.8595L56.1246 25.9648C57.2231 25.5654 58.1219 24.6666 58.5213 23.668C58.9208 22.5695 58.9208 21.3711 58.4215 20.2726C57.5227 18.3752 55.2258 17.4765 53.2286 18.1755ZM55.3257 22.3698C55.3257 22.4696 55.2258 22.6693 54.9263 22.7692L44.141 26.6639C42.3435 27.3629 41.1451 29.0606 41.1451 30.958V43.2412L44.0412 58.8198C44.141 59.5189 43.7416 60.2179 43.1424 60.4176C42.8428 60.5175 42.4434 60.4176 42.1438 60.2179C41.8442 60.0182 41.6444 59.7186 41.5446 59.3191L38.349 45.3383C38.1492 44.2398 37.1506 43.5408 36.0521 43.5408C34.9536 43.5408 34.0548 44.2398 33.7553 45.3383L30.5596 59.419C30.4598 59.7186 30.26 60.0182 30.0603 60.2179C29.7607 60.4176 29.4611 60.4176 29.0617 60.4176C28.4625 60.3178 28.0631 59.5189 28.1629 58.8198L31.0589 43.4409V31.0579C31.0589 29.1605 29.8606 27.4628 28.0631 26.7637L17.2778 22.8691C17.0781 22.7692 16.9782 22.5695 16.8784 22.4696C16.8784 22.3698 16.7785 22.17 16.8784 21.9703C16.9782 21.6707 17.4776 21.5709 17.7771 21.6707L30.4598 25.9648H42.0439L54.4269 21.471C54.8264 21.3711 55.2258 21.471 55.3257 21.7706C55.4256 21.9703 55.4256 22.17 55.3257 22.3698Z" fill="white"/>
</g>
<defs>
<clipPath id="clip0">
<rect width="73" height="73" fill="white"/>
</clipPath>
</defs>
</svg>
