<svg width="23" height="23" viewBox="0 0 23 23" fill="none" xmlns="http://www.w3.org/2000/svg">
<path d="M11.5 0C5.14718 0 0 5.19355 0 11.5C0 17.8528 5.14718 23 11.5 23C17.8065 23 23 17.8528 23 11.5C23 5.19355 17.8065 0 11.5 0ZM11.5 21.5161C5.98185 21.5161 1.48387 17.0645 1.48387 11.5C1.48387 6.02823 5.93548 1.48387 11.5 1.48387C16.9718 1.48387 21.5161 5.98185 21.5161 11.5C21.5161 17.0181 17.0181 21.5161 11.5 21.5161ZM17.9456 7.65121C17.8528 7.23387 17.4819 7.00202 17.0645 7.09476C12.1956 8.25403 10.7581 8.25403 5.88911 7.09476C5.47177 7.00202 5.10081 7.23387 5.00806 7.65121C4.91532 8.02218 5.14718 8.43952 5.56452 8.53226C7.00202 8.85686 8.34677 9.18145 9.64516 9.32056C9.64516 14.6532 9.04234 15.8125 8.39315 17.4819C8.20766 17.9919 8.43952 18.502 8.90323 18.6875C9.41331 18.873 9.92339 18.6411 10.1089 18.1774C10.5726 17.0645 10.9899 16.0907 11.2681 14.0968H11.6855C11.9637 16.0907 12.381 17.0645 12.8448 18.1774C13.0302 18.6411 13.5403 18.873 14.0504 18.6875C14.5141 18.502 14.746 17.9919 14.5605 17.4819C13.9113 15.8125 13.3085 14.6532 13.3085 9.32056C14.6069 9.18145 15.9516 8.85686 17.3891 8.53226C17.8065 8.43952 18.0383 8.02218 17.9456 7.65121ZM9.69153 5.65726C9.69153 6.63105 10.4798 7.41935 11.5 7.41935C12.4738 7.41935 13.2621 6.63105 13.2621 5.65726C13.2621 4.68347 12.4738 3.89516 11.5 3.89516C10.4798 3.89516 9.69153 4.68347 9.69153 5.65726Z" fill="white"/>
</svg>
