<svg width="28" height="28" viewBox="0 0 28 28" fill="none" xmlns="http://www.w3.org/2000/svg">
<g clip-path="url(#clip0)">
<path d="M27.9314 0.682925L27.8971 0.102437L27.3152 0.0682909C27.0072 0.0341445 19.7847 -0.546343 15.3006 2.45853C13.1441 3.92683 11.1587 6.35122 9.44726 9.01463C8.21498 9.08293 4.31278 9.59512 0.273663 13.4195C0.034054 13.6585 -0.0686355 14 -0.0001758 14.3073C0.0682839 14.6146 0.342122 14.8878 0.650191 14.9902L5.71621 16.4585C5.68198 16.5951 5.61352 16.6976 5.57929 16.8341L5.40814 17.2439L10.6795 22.5024L11.0903 22.3317C11.2272 22.2634 11.3641 22.2293 11.501 22.161L13.0072 27.3171C13.1098 27.6244 13.3495 27.8976 13.6918 27.9659C13.7602 28 13.8287 28 13.9314 28C14.171 28 14.4448 27.8976 14.616 27.7268C18.5524 23.561 18.9631 19.5317 18.9974 18.439C21.6673 16.7659 24.0634 14.7854 25.501 12.6683C28.5475 8.19512 27.9314 0.990242 27.9314 0.682925ZM26.5964 1.4C26.6306 2.18536 26.6306 3.72195 26.4595 5.42927L22.5573 1.53658C24.2688 1.33171 25.8091 1.36585 26.5964 1.4ZM1.77978 13.9317C4.51816 11.5415 7.0854 10.7902 8.55728 10.5171C7.66731 12.0537 6.88002 13.6585 6.22965 15.1951L1.77978 13.9317ZM14.1025 26.1902L12.8018 21.6488C14.3421 21 15.9852 20.1805 17.5597 19.2927C17.3201 20.7268 16.5671 23.3902 14.1025 26.1902ZM24.3715 11.8829C21.77 15.7073 15.8482 19.0195 11.0218 20.8976L9.51572 19.3951L13.1783 15.7415C13.4521 15.4683 13.4521 15.0585 13.1783 14.7854C12.9045 14.5122 12.4937 14.5122 12.2199 14.7854L8.55728 18.439L7.05117 16.9366C8.93381 12.122 12.2541 6.21463 16.0878 3.61951C17.4913 2.69756 19.2028 2.11707 20.88 1.80975L26.2199 7.13658C25.8776 8.77561 25.3299 10.5171 24.3715 11.8829Z" fill="white"/>
<path d="M19.3739 5.15607C18.4497 5.15607 17.594 5.53168 16.9436 6.18046C15.6086 7.51217 15.6086 9.73168 16.9436 11.0634C17.594 11.7122 18.4497 12.0878 19.3739 12.0878C20.2981 12.0878 21.1539 11.7122 21.8042 11.0634C23.1392 9.73168 23.1392 7.51217 21.8042 6.18046C21.1539 5.49753 20.2981 5.15607 19.3739 5.15607ZM20.8458 10.0731C20.435 10.4829 19.9216 10.6878 19.3739 10.6878C18.8262 10.6878 18.2786 10.4829 17.902 10.0731C17.0805 9.25363 17.0805 7.92192 17.902 7.13656C18.3128 6.7268 18.8262 6.52192 19.3739 6.52192C19.9216 6.52192 20.4693 6.7268 20.8458 7.13656C21.6673 7.95607 21.6673 9.25363 20.8458 10.0731Z" fill="white"/>
<path d="M4.96317 18.2342C4.86048 18.2683 2.05363 18.9512 1.16366 21.4098C0.787127 22.5366 0.787127 23.4585 0.787127 24.2439C0.787127 25.0634 0.821357 25.6781 0.444829 26.4293C0.307909 26.7366 0.342139 27.0781 0.581748 27.3171C0.718667 27.4537 0.924046 27.5561 1.12943 27.5561C1.23211 27.5561 1.36903 27.522 1.47172 27.4878C2.22478 27.1122 2.87515 27.1464 3.66243 27.1464C4.44972 27.1464 5.37392 27.1805 6.50351 26.7707C9.00229 25.8829 9.68688 23.0829 9.68688 22.9805L9.78957 22.6049L5.33969 18.1659L4.96317 18.2342ZM6.05852 25.4732C5.16855 25.7805 4.44972 25.7805 3.69666 25.7464C3.18322 25.7464 2.63554 25.7122 2.08786 25.8146C2.19055 25.2342 2.19055 24.722 2.15632 24.2098C2.15632 23.4585 2.12209 22.7415 2.43016 21.8537C2.90938 20.522 4.24434 19.8732 4.89471 19.6342L8.24923 22.9805C8.04385 23.6634 7.39348 24.9951 6.05852 25.4732Z" fill="white"/>
</g>
<defs>
<clipPath id="clip0">
<rect width="28" height="28" fill="white"/>
</clipPath>
</defs>
</svg>
