<svg width="28" height="27" viewBox="0 0 28 27" fill="none" xmlns="http://www.w3.org/2000/svg">
<path d="M7.91771 7.46265H5.67285V9.7075H7.91771V7.46265Z" fill="white"/>
<path d="M7.91771 12.286H5.67285V14.5309H7.91771V12.286Z" fill="white"/>
<path d="M14.4094 7.46265H12.1646V9.7075H14.4094V7.46265Z" fill="white"/>
<path d="M14.4094 12.286H12.1646V14.5309H14.4094V12.286Z" fill="white"/>
<path d="M7.91771 17.1094H5.67285V19.3543H7.91771V17.1094Z" fill="white"/>
<path d="M4.06521 1.21343H15.8962C16.2299 1.21343 16.5029 0.940412 16.5029 0.606717C16.5029 0.273023 16.2299 0 15.8962 0H4.06521C3.73152 0 3.4585 0.273023 3.4585 0.606717C3.4585 0.940412 3.70118 1.21343 4.06521 1.21343Z" fill="white"/>
<path d="M26.1495 24.9361V13.9545C26.1495 13.3175 25.6338 12.8017 24.9967 12.8017H19.688V14.0152H24.9057V24.9361H18.7476V3.42797C18.7476 2.79091 18.2318 2.27521 17.5948 2.27521H2.4572C1.82015 2.27521 1.30444 2.79091 1.30444 3.42797V24.9361H0V26.1495H1.30444H18.7476H28V24.9361H26.1495ZM14.2579 24.9361H12.3467V19.233C12.3467 19.0206 12.5287 18.8386 12.7411 18.8386H13.8635C14.0758 18.8386 14.2579 19.0206 14.2579 19.233V24.9361ZM17.5645 24.9361H15.5016V19.233C15.5016 18.3532 14.7736 17.6252 13.8938 17.6252H12.7714C11.8917 17.6252 11.1636 18.3532 11.1636 19.233V24.9361H2.57855V3.48864H17.5948V24.9361H17.5645Z" fill="white"/>
</svg>
