<svg width="29" height="27" viewBox="0 0 29 27" fill="none" xmlns="http://www.w3.org/2000/svg">
<path d="M28.9454 6.98601C28.6049 4.83357 26.7511 3.32308 24.6326 3.32308C24.4056 3.32308 24.1408 3.36084 23.9138 3.3986C22.287 3.66294 21.0386 4.7958 20.509 6.23077L16.0071 5.96643C15.6666 2.60559 12.7914 0 9.34874 0C5.64127 0 2.65262 2.98322 2.65262 6.68392C2.65262 9.13847 3.97671 11.2909 5.98177 12.4615L4.96032 16.8042C4.88466 16.8042 4.84683 16.8042 4.77116 16.8042V17.5594V16.8042C4.73333 16.8042 4.65766 16.8042 4.61983 16.8042C1.97164 16.8797 -0.109063 19.1077 0.00443137 21.7511C0.080094 24.3566 2.19863 26.358 4.80899 26.358C4.84682 26.358 4.92249 26.358 4.96032 26.358C7.60851 26.2825 9.68924 24.0546 9.57574 21.4112C9.50008 19.4098 8.21382 17.7483 6.43575 17.0685L7.38153 13.028C7.98683 13.2168 8.66778 13.3301 9.34874 13.3301C10.408 13.3301 11.3916 13.0657 12.2618 12.6503L15.6666 17.2196C15.4774 17.4084 15.2883 17.5972 15.0991 17.786C13.1319 20.2028 13.4724 23.7147 15.8936 25.7161C16.9529 26.5846 18.2013 27 19.4497 27C21.0764 27 22.7032 26.2825 23.8003 24.9608C25.7675 22.5441 25.4271 19.0322 23.0059 17.0308C21.9466 16.1622 20.6981 15.7469 19.4497 15.7469C18.5796 15.7469 17.7095 15.9734 16.915 16.351L13.548 11.8573C14.8721 10.8 15.7801 9.25174 15.9692 7.47692L20.2442 7.74126C20.2442 7.96783 20.2442 8.1944 20.282 8.45874C20.6225 10.6112 22.4762 12.1217 24.5948 12.1217C24.8218 12.1217 25.0866 12.0839 25.3136 12.0462C27.6969 11.6308 29.3237 9.4028 28.9454 6.98601ZM19.4497 17.2573C20.3955 17.2573 21.3034 17.5972 22.0601 18.2014C22.8924 18.8811 23.422 19.9007 23.5355 20.9958C23.649 22.0909 23.3085 23.1483 22.6275 24.0168C21.8331 24.9608 20.6981 25.5273 19.4497 25.5273C18.5039 25.5273 17.596 25.1874 16.8394 24.5832C15.0991 23.1483 14.8343 20.5427 16.2719 18.8056C17.0285 17.786 18.2013 17.2573 19.4497 17.2573ZM8.02465 21.4489C8.10031 23.2615 6.66273 24.772 4.84683 24.8098C4.809 24.8098 4.77117 24.8098 4.73334 24.8098C2.95527 24.8098 1.51768 23.4126 1.44202 21.6378C1.36635 19.8252 2.80393 18.3147 4.61983 18.2769C4.65766 18.2769 4.69551 18.2769 4.73334 18.2769V17.9748V18.2769C6.51141 18.2769 7.94898 19.6741 8.02465 21.4489ZM9.31092 11.8196C6.43574 11.8196 4.12803 9.51609 4.12803 6.64616C4.12803 3.77623 6.43574 1.47272 9.31092 1.47272C12.1861 1.47272 14.4938 3.77623 14.4938 6.64616C14.4938 9.51609 12.1861 11.8196 9.31092 11.8196ZM25.0866 10.5357C24.9352 10.5734 24.7839 10.5734 24.6326 10.5734C23.2328 10.5734 22.0222 9.55385 21.7952 8.15665C21.5304 6.60839 22.5897 5.13566 24.1786 4.87133C24.3299 4.83356 24.4813 4.83357 24.6326 4.83357C26.0324 4.83357 27.243 5.85315 27.4699 7.25035C27.6969 8.79861 26.6377 10.2713 25.0866 10.5357Z" fill="white"/>
</svg>
