<svg width="19" height="28" viewBox="0 0 19 28" fill="none" xmlns="http://www.w3.org/2000/svg">
<path d="M15.3581 3.11643C15.3581 2.56305 14.8921 2.09704 14.3387 2.09704H12.6495C12.4747 0.932032 11.4553 0 10.2321 0H9.15443C7.93117 0 6.91177 0.902906 6.73701 2.09704H5.22251C4.66913 2.09704 4.20312 2.56305 4.20312 3.11643V5.97069H15.329V3.11643H15.3581ZM14.1931 4.80568H5.39726V3.29118H7.90203V2.47565C7.90203 1.77664 8.48454 1.19417 9.18355 1.19417H10.2612C10.9602 1.19417 11.5427 1.77664 11.5427 2.47565V3.29118H14.2222V4.80568H14.1931Z" fill="white"/>
<path d="M17.9504 3.61154H16.2903V4.74744H17.8631V26.2711H1.64025V4.74744H3.09652V3.61154H1.58202C0.999511 3.61154 0.504395 4.10669 0.504395 4.6892V26.3293C0.504395 26.9118 0.999511 27.4069 1.58202 27.4069H17.9213C18.5038 27.4069 18.999 26.9118 18.999 26.3293V4.6892C19.0281 4.07757 18.5329 3.61154 17.9504 3.61154Z" fill="white"/>
<path d="M16.2613 9.87347H7.98975V11.0385H16.2613V9.87347Z" fill="white"/>
<path d="M4.3782 11.9996L6.88297 9.49488L6.06748 8.65024L4.3782 10.3686L3.4462 9.43661L2.60156 10.2521L4.3782 11.9996Z" fill="white"/>
<path d="M16.2613 15.2325H7.98975V16.3976H16.2613V15.2325Z" fill="white"/>
<path d="M6.06748 14.0384L4.3782 15.7277L3.4462 14.7957L2.60156 15.6112L4.3782 17.3878L6.88297 14.8539L6.06748 14.0384Z" fill="white"/>
<path d="M16.2613 20.6207H7.98975V21.7857H16.2613V20.6207Z" fill="white"/>
<path d="M3.4462 20.1839L2.60156 20.9994L4.3782 22.7469L6.88297 20.2421L6.06748 19.3975L4.3782 21.1159L3.4462 20.1839Z" fill="white"/>
</svg>
