<?xml version="1.0" encoding="utf-8"?>
<!-- Generator: Adobe Illustrator 23.0.0, SVG Export Plug-In . SVG Version: 6.00 Build 0)  -->
<svg version="1.1" xmlns="http://www.w3.org/2000/svg" xmlns:xlink="http://www.w3.org/1999/xlink" x="0px" y="0px"
	 viewBox="0 0 125.2 33" style="enable-background:new 0 0 125.2 33;" xml:space="preserve">
<style type="text/css">
	.st0{fill:url(#SVGID_1_);}
	.st1{fill:url(#SVGID_2_);}
	.st2{fill:#FFFFFF;}
	.st3{fill:url(#SVGID_3_);}
	.st4{fill:url(#SVGID_4_);}
	.st5{fill:url(#SVGID_5_);}
	.st6{fill:url(#SVGID_6_);}
	.st7{fill:url(#SVGID_7_);}
	.st8{fill:url(#SVGID_8_);}
	.st9{fill:url(#SVGID_9_);}
	.st10{fill:url(#SVGID_10_);}
	.st11{fill:url(#SVGID_11_);}
	.st12{fill:url(#SVGID_12_);}
	.st13{fill:url(#SVGID_13_);}
	.st14{fill:url(#SVGID_14_);}
	.st15{fill:#F2F2F2;}
	.st16{fill:#007E9D;}
	.st17{opacity:0.1;fill:#00467F;}
	.st18{fill:#FFFFFF;stroke:#007E9D;stroke-miterlimit:10;}
	.st19{fill:none;stroke:#007E9D;stroke-width:2;stroke-miterlimit:10;}
	.st20{fill:#B3B3B3;}
	.st21{fill:none;stroke:#B3B3B3;stroke-width:0.75;stroke-miterlimit:10;}
	.st22{fill:none;stroke:#B3B3B3;stroke-width:0.5;stroke-miterlimit:10;}
	.st23{fill:#16487D;}
	.st24{opacity:0.1;fill:#F7931E;}
	.st25{fill:#FFFFFF;stroke:#006837;stroke-miterlimit:10;}
	.st26{fill:#009245;}
	.st27{opacity:0.4;fill:#FAA61A;}
	.st28{fill:#00467F;}
	.st29{opacity:0.1;fill:#22BBAD;}
	.st30{opacity:0.1;fill:#77C043;}
	.st31{fill:#E6E6E6;}
	.st32{fill:#CCCCCC;}
	.st33{fill:#808080;}
	.st34{fill:#E4414B;}
	.st35{fill:#FAA61A;}
	.st36{fill:#77C043;}
	.st37{opacity:0.5;fill:#007E9D;}
	.st38{opacity:6.000000e-02;fill:#007E9D;}
	.st39{fill:none;stroke:#007E9D;stroke-width:0.5989;stroke-miterlimit:10;}
	.st40{opacity:0.1;fill:#E4414B;}
	.st41{fill:none;stroke:#00467F;stroke-width:0.2687;stroke-miterlimit:10;}
	.st42{fill:none;stroke:#B3B3B3;stroke-width:0.5374;stroke-miterlimit:10;}
	.st43{fill:#666666;}
	.st44{fill:none;stroke:#007E9D;stroke-miterlimit:10;}
	.st45{opacity:0.5;fill:none;stroke:#77C043;stroke-width:2;stroke-miterlimit:10;}
	.st46{opacity:0.6;fill:#77C043;}
	.st47{opacity:0.2;fill:none;stroke:#77C043;stroke-width:2;stroke-miterlimit:10;}
	.st48{opacity:0.79;}
	.st49{opacity:0.4;fill:#77C043;}
	.st50{fill:#22BBAD;}
	.st51{fill:url(#SVGID_15_);}
	.st52{fill:url(#SVGID_16_);}
	.st53{fill:#4D4D4D;}
	.st54{fill:url(#SVGID_17_);}
	.st55{fill:url(#SVGID_18_);}
	.st56{fill:none;stroke:#00467F;stroke-miterlimit:10;}
	.st57{opacity:0.1;fill:#F15A24;}
	.st58{fill:#999999;}
	.st59{fill:#1A2A57;}
	.st60{fill:none;stroke:#007E9D;stroke-width:0.6295;stroke-miterlimit:10;}
	.st61{fill:none;stroke:#007E9D;stroke-width:0.5;stroke-miterlimit:10;}
	.st62{fill:url(#SVGID_19_);}
	.st63{fill:url(#SVGID_20_);}
	.st64{fill:url(#SVGID_21_);}
	.st65{fill:url(#SVGID_22_);}
	.st66{fill:url(#SVGID_23_);}
	.st67{fill:url(#SVGID_24_);}
	.st68{fill:url(#SVGID_25_);}
	.st69{fill:url(#SVGID_26_);}
	.st70{fill:url(#SVGID_27_);}
	.st71{fill:url(#SVGID_28_);}
	.st72{opacity:0.6;fill:#1A1A1A;}
</style>
<g id="background">
</g>
<g id="header">
</g>
<g id="content">
</g>
<g id="modal_screen">
</g>
<g id="modal">
</g>
<g id="grid">
</g>
<g id="final_icons">
	<g>
		<g>
			<path class="st2" d="M60,26.8h-4l-2.8-11.5h-0.1l-2.7,11.5h-3.9L42,9.5h4.1l2.6,11.7h0.1l2.8-11.7h3.7l2.9,11.7h0.1l0.2-0.8
				L61,9.5h3.3L60,26.8z"/>
			<path class="st2" d="M68.1,21l0,0.6c0,1.5,0.9,2.8,2.5,2.8c1.1,0,2.3-0.8,2.3-2l3.4,0.3c0,0.6-1.5,4.4-5.8,4.4
				c-3.8,0-6.3-2.7-6.3-6.5c0-3.8,2.2-6.8,6.2-6.8c1.8,0,3.6,0.8,4.7,2.3c1.1,1.5,1.3,3.3,1.3,5H68.1z M72.6,18.8
				c-0.1-1.4-0.5-2.7-2.1-2.7c-1.6,0-2.3,1.2-2.4,2.7H72.6z"/>
			<path class="st2" d="M85.7,17.8c-0.3-1.2-1.3-1.7-2.5-1.7c-0.8,0-1.9,0.2-1.9,1.1c0,2.4,7.7-0.3,7.7,5.5c0,1.3-0.6,2.5-1.7,3.3
				c-1.2,0.8-2.6,1.1-4,1.1c-2.7,0-5.2-0.9-5.9-3.8l3.2-0.5c0.3,1.3,1.6,1.7,2.8,1.7c0.7,0,2.2-0.3,2.2-1.2c0-0.9-0.8-1-1.4-1.1
				c-0.9-0.1-3-0.5-3.8-0.8c-1.5-0.5-2.5-1.8-2.5-3.5c0-3.2,2.7-4.3,5.5-4.3c2.5,0,4.2,1,5,3.4L85.7,17.8z"/>
			<path class="st2" d="M98.2,16.9h-2.7V22c0,1.7,0.1,2.1,1.7,2.1c0.3,0,0.8-0.1,1.2-0.1v2.8c-0.7,0.2-1.6,0.3-2.3,0.3
				c-1.1,0-2.5-0.2-3.3-0.8c-1-0.9-1-2.4-1-3.7v-5.7h-2.1v-3h2.2l0.3-3.8l3.2-0.3v4h2.7V16.9z"/>
			<path class="st2" d="M108.1,26.8c-0.2-0.7-0.2-1.3-0.2-2c-1.1,1.5-2.2,2.2-4.1,2.2c-2.3,0-4-1.2-4-3.6c0-1.9,1.2-3.2,2.9-3.8
				c1.5-0.6,3.5-0.7,5.1-0.8v-0.3c0-0.6,0.1-1.2-0.3-1.7c-0.3-0.4-1-0.6-1.5-0.6c-1.2,0-2.2,0.6-2.2,1.9l-3.5-0.3
				c0.4-3.1,3.4-4,6.1-4c1.3,0,3,0.3,4.1,1.2c1.3,1.1,1.2,2.5,1.2,4v6c0,0.7,0.1,1.3,0.3,1.9H108.1z M107.7,20.6
				c-1.4,0.2-4,0.5-4,2.3c0,1,0.6,1.7,1.6,1.7c0.8,0,1.4-0.4,1.9-1.1c0.5-0.8,0.5-1.6,0.5-2.5V20.6z"/>
			<path class="st2" d="M121.4,16.9h-2.8V22c0,1.7,0.1,2.1,1.7,2.1c0.3,0,0.8-0.1,1.2-0.1v2.8c-0.7,0.2-1.6,0.3-2.3,0.3
				c-1.1,0-2.5-0.2-3.3-0.8c-1-0.9-1-2.4-1-3.7v-5.7h-2.1v-3h2.2l0.3-3.8l3.2-0.3v4h2.8V16.9z"/>
		</g>
		<g>
			<path class="st2" d="M123.3,9.5c1,0,1.8,0.8,1.8,1.8c0,1-0.8,1.8-1.8,1.8c-1,0-1.8-0.8-1.8-1.8C121.5,10.3,122.3,9.5,123.3,9.5z
				 M123.3,12.8c0.8,0,1.5-0.7,1.5-1.5c0-0.8-0.7-1.5-1.5-1.5c-0.8,0-1.5,0.7-1.5,1.5C121.8,12.1,122.5,12.8,123.3,12.8z M123,12.3
				h-0.4v-2h0.9c0.1,0,0.7,0,0.7,0.6c0,0.4-0.3,0.5-0.4,0.5l0.4,0.9h-0.4l-0.3-0.8H123V12.3z M123,11.2h0.4c0.1,0,0.4,0,0.4-0.3
				c0-0.1-0.1-0.3-0.3-0.3H123V11.2z"/>
		</g>
		<g>
			<polygon class="st2" points="35.4,0 15.7,27.3 19,33 37.9,0 			"/>
			<polygon class="st2" points="30.8,0 29.3,0 12.4,21.6 24.5,0 0,0 15.7,27.3 			"/>
		</g>
	</g>
</g>
</svg>
