<svg width="25" height="32" viewBox="0 0 25 32" fill="none" xmlns="http://www.w3.org/2000/svg">
<path d="M21.2937 2.86716H7.34264L0 9.54548V30.6644C0 30.9791 0.279725 31.2588 0.59441 31.2588H21.3287C21.6434 31.2588 21.9231 30.9791 21.9231 30.6644V3.46155C21.8881 3.1119 21.6434 2.86716 21.2937 2.86716ZM7.06295 5.00002V8.98604C7.06295 9.19583 6.88813 9.37065 6.67834 9.37065H2.23775L7.06295 5.00002ZM20.4895 29.8252H1.36362V10.7693H6.64334C7.62236 10.7693 8.42659 9.96507 8.42659 8.98604V4.23076H20.4895V29.8252Z" fill="white"/>
<path d="M5.55949 13.2518H3.67139V15.1399H5.55949V13.2518Z" fill="white"/>
<path d="M5.55949 18.4965H3.67139V20.3846H5.55949V18.4965Z" fill="white"/>
<path d="M18.1469 13.5665H7.69238V14.9651H18.1469V13.5665Z" fill="white"/>
<path d="M18.1469 18.8112H7.69238V20.2098H18.1469V18.8112Z" fill="white"/>
<path d="M18.1469 24.056H7.69238V25.4546H18.1469V24.056Z" fill="white"/>
<path d="M5.55949 23.7413H3.67139V25.6294H5.55949V23.7413Z" fill="white"/>
<path d="M24.4057 0H10.4547L8.14697 2.0979H10.2099L10.9791 1.3986H23.6015V26.9931H23.0071V28.3917H24.4057C24.7204 28.3917 25.0001 28.1119 25.0001 27.7972V0.594432C25.0001 0.279746 24.7554 0 24.4057 0Z" fill="white"/>
</svg>
