<svg width="16" height="21" viewBox="0 0 16 21" fill="none" xmlns="http://www.w3.org/2000/svg">
<path d="M14.9282 1.03448C14.9537 1.03448 14.9793 1.06034 14.9793 1.08621V19.9655L11.4833 16.1638L8.54864 13.0086C8.39553 12.8534 8.19139 12.7759 7.98724 12.7759C7.78309 12.7759 7.57895 12.8534 7.42584 13.0086L4.51675 16.1638L1.02073 19.9655V1.08621C1.02073 1.06034 1.04625 1.03448 1.07177 1.03448H14.9282ZM14.9282 0H1.07177C0.484848 0 0 0.491379 0 1.08621V19.9655C0 20.3793 0.255183 20.7672 0.637959 20.9224C0.76555 20.9741 0.893142 21 1.02073 21C1.30144 21 1.58214 20.8966 1.76077 20.6638L5.25678 16.8621L7.98724 13.9138L10.7432 16.8621L14.2392 20.6379C14.4434 20.8448 14.6986 20.9741 14.9793 20.9741C15.1069 20.9741 15.2344 20.9483 15.362 20.8966C15.7448 20.7414 16 20.3534 16 19.9397V1.06034C16 0.491379 15.5152 0 14.9282 0Z" fill="white"/>
</svg>
