<svg width="26" height="24" viewBox="0 0 26 24" fill="none" xmlns="http://www.w3.org/2000/svg">
<path d="M24.6567 1.69567H23.6837H13.0928V0.555957C13.0928 0.25018 12.8426 0 12.5368 0C12.231 0 11.9809 0.25018 11.9809 0.555957V1.69567H1.38989H0.555957C0.25018 1.69567 0 1.94585 0 2.25163C0 2.5574 0.25018 2.80758 0.555957 2.80758H1.38989V15.7614C1.38989 17.5404 2.83537 18.9859 4.61443 18.9859H11.2581L8.08916 22.1549C7.86678 22.3773 7.86678 22.7108 8.08916 22.9332C8.31155 23.1556 8.64513 23.1556 8.86752 22.9332L12.0365 19.7643V21.2097C12.0365 21.5155 12.2867 21.7657 12.5924 21.7657C12.8982 21.7657 13.1484 21.5155 13.1484 21.2097V19.7087L16.5953 22.9332C16.7065 23.0444 16.8455 23.0722 16.9845 23.0722C17.1235 23.0722 17.2902 23.0166 17.4014 22.9054C17.6238 22.683 17.596 22.3217 17.3736 22.1271L14.0101 18.9859H20.4314C22.2105 18.9859 23.6559 17.5404 23.6559 15.7614V2.80758H24.6289C24.9347 2.80758 25.1848 2.5574 25.1848 2.25163C25.1848 1.94585 24.9624 1.69567 24.6567 1.69567ZM22.5718 15.7336C22.5718 16.9011 21.6267 17.8462 20.4592 17.8462H4.64222C3.47472 17.8462 2.5296 16.9011 2.5296 15.7336V2.77978H22.5997V15.7336H22.5718Z" fill="white"/>
<path d="M20.4315 5.42059H8.00586V6.53251H20.4315V5.42059Z" fill="white"/>
<path d="M6.30965 5.17038H4.80859V6.67146H6.30965V5.17038Z" fill="white"/>
<path d="M20.4315 9.08987H8.00586V10.2018H20.4315V9.08987Z" fill="white"/>
<path d="M6.30965 8.83972H4.80859V10.3408H6.30965V8.83972Z" fill="white"/>
<path d="M20.4315 12.7314H8.00586V13.8433H20.4315V12.7314Z" fill="white"/>
<path d="M6.30965 12.4812H4.80859V13.9823H6.30965V12.4812Z" fill="white"/>
</svg>
