<svg width="26" height="21" viewBox="0 0 26 21" fill="none" xmlns="http://www.w3.org/2000/svg">
<path d="M25.2002 0H10.4258V1.39382H25.2002V0Z" fill="white"/>
<path d="M10.37 1.83984C6.57882 2.14648 3.48454 5.21289 3.1779 9.03195C3.01064 11.1505 3.67969 13.1298 4.90625 14.6351L0.250887 19.2904C-0.0836289 19.625 -0.0836289 20.1546 0.250887 20.4612C0.585403 20.7958 1.11507 20.7958 1.42171 20.4612L6.07704 15.8059C7.58236 17.0325 9.56158 17.7015 11.6802 17.5342C14.7744 17.2833 17.3948 15.1926 18.4263 12.3771C18.4541 12.2656 18.5099 12.1541 18.5378 12.0426C18.5378 12.0426 18.5378 12.0426 18.5378 12.0147C18.5657 11.9032 18.5935 11.7917 18.6214 11.6802C18.7329 11.2342 18.8165 10.7881 18.8444 10.3421C19.2626 5.46376 15.2205 1.4217 10.37 1.83984ZM11.0112 16.001C7.52663 16.001 4.68323 13.1577 4.68323 9.67312C4.68323 6.18858 7.52663 3.34517 11.0112 3.34517C12.9068 3.34517 14.6072 4.18148 15.7501 5.49167C15.8338 5.60317 15.9174 5.71467 16.001 5.7983C16.1683 6.02131 16.3077 6.24433 16.4471 6.46734C16.4471 6.46734 16.447 6.49521 16.4749 6.49521C16.5307 6.60671 16.6143 6.7182 16.67 6.85758C17.0882 7.69387 17.3112 8.64166 17.3112 9.64521C17.3112 10.0912 17.2555 10.5094 17.1718 10.9275C17.144 11.0391 17.1161 11.1505 17.0882 11.2621C17.0882 11.2899 17.0882 11.3178 17.0603 11.3178C17.0324 11.4014 17.0046 11.5129 16.9767 11.5966C16.9767 11.6244 16.9488 11.6523 16.9488 11.6523C16.9209 11.736 16.893 11.8475 16.8373 11.9311C16.8373 11.959 16.8373 11.959 16.8094 11.9868C16.7537 12.0983 16.7258 12.2098 16.67 12.2935C15.7501 14.4957 13.5479 16.001 11.0112 16.001Z" fill="white"/>
<path d="M10.4258 12.3492H15.4993C15.7502 11.9311 15.9453 11.4572 16.0847 10.9554H10.4258V12.3492Z" fill="white"/>
<path d="M19.5977 12.3492H25.2008V10.9554H19.9043C19.8485 11.4293 19.737 11.9032 19.5977 12.3492Z" fill="white"/>
<path d="M14.106 5.49164H10.3984V6.88545H15.3883C15.0817 6.32793 14.6357 5.85403 14.106 5.49164Z" fill="white"/>
<path d="M18.9551 5.49164C19.206 5.93766 19.4011 6.41156 19.5405 6.88545H25.1715V5.49164H18.9551Z" fill="white"/>
</svg>
