<svg width="21" height="22" viewBox="0 0 21 22" fill="none" xmlns="http://www.w3.org/2000/svg">
<path d="M12.6 7.20001H5.5V8.20001H12.6V7.20001Z" fill="white"/>
<path d="M4.09883 7H2.79883V8.3H4.09883V7Z" fill="white"/>
<path d="M4.09883 10.6H2.79883V11.9H4.09883V10.6Z" fill="white"/>
<path d="M4.09883 14.2H2.79883V15.5H4.09883V14.2Z" fill="white"/>
<path d="M1.19922 18.4V5.3H4.79922C5.49922 5.3 5.99922 4.8 5.99922 4.1V0.899994H14.1992V8.7C14.4992 8.7 14.7992 8.7 15.1992 8.8V0.399994C15.1992 0.199994 14.9992 0 14.7992 0H5.19922L0.199219 4.6V19C0.199219 19.2 0.399219 19.4 0.599219 19.4H8.09922C7.89922 19.1 7.79922 18.8 7.59922 18.4H1.19922ZM5.09922 1.39999V4.1C5.09922 4.2 4.99922 4.39999 4.79922 4.39999H1.79922L5.09922 1.39999Z" fill="white"/>
<path d="M5.5 15.4H7.2C7.2 15.1 7.3 14.8 7.3 14.4H5.5V15.4Z" fill="white"/>
<path d="M9.19961 10.8H5.59961V11.8H8.39961C8.59961 11.4 8.89961 11.1 9.19961 10.8Z" fill="white"/>
<path d="M14.2992 9.59998C10.8992 9.59998 8.19922 12.3 8.19922 15.7C8.19922 19.1 10.8992 21.8 14.2992 21.8C17.6992 21.8 20.3992 19.1 20.3992 15.7C20.3992 12.4 17.6992 9.59998 14.2992 9.59998ZM14.2992 20.9C11.4992 20.9 9.09922 18.6 9.09922 15.7C9.09922 12.9 11.3992 10.5 14.2992 10.5C17.1992 10.5 19.4992 12.8 19.4992 15.7C19.4992 18.6 17.0992 20.9 14.2992 20.9Z" fill="white"/>
<path d="M14.7988 12.2H13.7988V15.9L16.3988 18.6L17.0988 18L14.7988 15.5V12.2Z" fill="white"/>
</svg>
