<svg width="31" height="25" viewBox="0 0 31 25" fill="none" xmlns="http://www.w3.org/2000/svg">
<path d="M15.7008 20.1C14.2008 20.3 12.5008 20.5 10.9008 20.5C7.30083 20.5 3.40083 19.6 1.90083 19.2H1.80083V19.1C1.90083 18.3 2.20083 16.7 3.20083 15.9L3.30083 15.8C3.80083 15.4 6.30083 14.2 8.70083 13.2H8.80083H8.90083C9.60083 13.7 10.4008 13.9 11.0008 13.9C11.7008 13.9 12.4008 13.7 13.1008 13.2H13.2008H13.3008C14.0008 13.5 14.8008 13.9 15.5008 14.2C15.5008 13.7 15.6008 13.3 15.7008 12.8C15.3008 12.6 15.0008 12.5 14.5008 12.3L14.3008 12.2L14.4008 12C15.3008 10.9 16.0008 9.60001 16.2008 8.10001C16.4008 6.70001 16.4008 3.70001 14.8008 1.70001C13.9008 0.600012 12.6008 0 11.0008 0C9.40083 0 8.10083 0.600012 7.20083 1.70001C5.50083 3.70001 5.60083 6.70001 5.80083 8.10001C6.10083 9.60001 6.70083 11 7.60083 12L7.70083 12.2L7.50083 12.3C3.80083 13.9 2.70083 14.6 2.40083 14.9C0.400826 16.5 0.500826 19.6 0.500826 19.8V20C0.500826 20.2 0.600827 20.4 0.800827 20.4H0.900826C1.10083 20.5 6.10083 21.9 10.9008 21.9C12.0008 21.9 13.1008 21.8 14.2008 21.7L15.7008 20.1ZM7.00083 7.90001C6.90083 7.00001 6.70083 4.20001 8.10083 2.60001C8.80083 1.80001 9.70083 1.40001 10.9008 1.40001C12.1008 1.40001 13.1008 1.80001 13.7008 2.60001C15.1008 4.20001 15.0008 7.00001 14.8008 7.90001C14.3008 10.9 12.1008 12.6 10.8008 12.6C9.60083 12.6 7.50083 10.9 7.00083 7.90001Z" fill="white"/>
<path d="M19.7007 20C21.0007 21 22.7007 21.5 24.4007 21.3C27.6007 20.9 30.1007 18.2 30.2007 15C30.4007 10.9 26.9007 7.69997 22.8007 8.09997C19.6007 8.49997 17.1007 11.1 17.0007 14.3C16.9007 16.1 17.5007 17.7 18.6007 18.9L14.8007 22.9C14.5007 23.2 14.6007 23.6 14.8007 23.9C15.1007 24.2 15.5007 24.1 15.8007 23.9L19.7007 20ZM18.3007 14.9C18.2007 12 20.5007 9.49998 23.4007 9.39998C26.3007 9.29998 28.8007 11.6 28.9007 14.5C29.0007 17.4 26.7007 19.9 23.8007 20C20.9007 20.1 18.4007 17.8 18.3007 14.9Z" fill="white"/>
</svg>
