<svg xmlns="http://www.w3.org/2000/svg" width="112.02" height="94.3" viewBox="0 0 112.02 94.3"><defs><style>.cls-1{fill:#bcf8f1;}</style></defs><g id="final_icons" data-name="final icons"><path class="cls-1" d="M94.81,30.44a11.59,11.59,0,0,0-11.42-9.71,12.26,12.26,0,0,0-1.9.15,11.59,11.59,0,0,0-9,7.5l-11.92-.71A17.69,17.69,0,1,0,34,44.8L31.35,56.33l-.47,0v2h0v-2h-.43a12.67,12.67,0,0,0,.41,25.33h.43a12.66,12.66,0,0,0,4-24.52l2.49-10.66a18,18,0,0,0,5.21.78,17.62,17.62,0,0,0,7.74-1.8l9,12.06A14.61,14.61,0,0,0,58.21,59,15.1,15.1,0,1,0,63,55.22L54.1,43.28a17.67,17.67,0,0,0,6.42-11.6l11.28.67A11.5,11.5,0,0,0,83.36,43.91a12.26,12.26,0,0,0,1.9-.15A11.6,11.6,0,0,0,94.81,30.44ZM69.73,57.59A10.9,10.9,0,0,1,78.14,75.4a10.86,10.86,0,0,1-8.43,4,10.75,10.75,0,0,1-6.9-2.47,10.9,10.9,0,0,1,6.92-19.32Zm-30.2,11.1a8.68,8.68,0,0,1-8.37,9h-.3a8.67,8.67,0,0,1-.27-17.33h.29v-.79h0v.79A8.62,8.62,0,0,1,39.53,68.69ZM43,43.23a13.7,13.7,0,1,1,13.69-13.7A13.71,13.71,0,0,1,43,43.23Zm41.64-3.42a7.59,7.59,0,0,1-2.47-15,7.59,7.59,0,0,1,2.47,15Z"/></g></svg>