<svg width="34" height="25" viewBox="0 0 34 25" fill="none" xmlns="http://www.w3.org/2000/svg">
<path d="M11.3844 3.70299C7.22234 4.03962 3.82538 7.40597 3.48875 11.5986C3.30513 13.9244 4.03959 16.0972 5.38612 17.7498L0.275428 22.8605C-0.0918092 23.2278 -0.0918092 23.8092 0.275428 24.1459C0.642664 24.5131 1.22411 24.5131 1.56074 24.1459L6.67147 19.0352C8.32404 20.3817 10.4969 21.1161 12.8227 20.9325C16.2196 20.6571 19.0963 18.3619 20.2286 15.271C20.2592 15.1485 20.3204 15.0262 20.351 14.9037C20.351 14.9037 20.351 14.9037 20.351 14.8731C20.3816 14.7507 20.4123 14.6283 20.4429 14.5059C20.5653 14.0162 20.6571 13.5266 20.6877 13.0369C21.1161 7.68139 16.7093 3.24394 11.3844 3.70299ZM19.0351 12.3025C19.0351 12.7921 18.9739 13.2512 18.8821 13.7102C18.8515 13.8326 18.8209 13.955 18.7903 14.0774C18.7903 14.108 18.7903 14.1387 18.7597 14.1387C18.7291 14.2305 18.6985 14.3529 18.6679 14.4447C18.6679 14.4753 18.6373 14.5059 18.6373 14.5059C18.6067 14.5977 18.5761 14.7201 18.5148 14.8119C18.5148 14.8425 18.5149 14.8425 18.4843 14.8731C18.423 14.9955 18.3924 15.118 18.3312 15.2098C17.2295 17.5662 14.8119 19.2188 12.027 19.2188C8.20163 19.2188 5.08009 16.0972 5.08009 12.2718C5.08009 8.44646 8.20163 5.32496 12.027 5.32496C14.108 5.32496 15.9748 6.24304 17.2295 7.68139C17.3213 7.8038 17.4132 7.92624 17.505 8.01805C17.6886 8.26287 17.8416 8.50767 17.9946 8.75249C17.9946 8.75249 17.9946 8.78313 18.0252 8.78313C18.0864 8.90554 18.1782 9.02793 18.2394 9.18094C18.7903 10.1602 19.0351 11.2008 19.0351 12.3025Z" fill="white"/>
<path d="M11.3535 13.3124L9.67034 11.6598L8.81348 12.5167L11.3535 15.0568L15.9746 10.4051L15.1177 9.54822L11.3535 13.3124Z" fill="white"/>
<path d="M34.0002 0H12.0884V1.53015H34.0002V0Z" fill="white"/>
<path d="M19.6164 6.21247H33.9693V4.68231H18.0557C18.6371 5.11075 19.1574 5.63101 19.6164 6.21247Z" fill="white"/>
<path d="M21.6978 10.8641H34.0002V9.33392H21.3306C21.4836 9.85418 21.606 10.3438 21.6978 10.8641Z" fill="white"/>
<path d="M21.2388 15.5464H34.0002V14.0162H21.6366C21.5448 14.5365 21.3918 15.0567 21.2388 15.5464Z" fill="white"/>
</svg>
