<svg width="37" height="22" viewBox="0 0 37 22" fill="none" xmlns="http://www.w3.org/2000/svg">
<g clip-path="url(#clip0)">
<path d="M20.0091 1.71944C20.0091 0.749499 19.2329 0 18.3273 0C17.3786 0 16.6455 0.793587 16.6455 1.71944C16.9905 6.96593 17.6805 12.6533 18.2411 13.0942C18.8017 12.6533 19.5779 7.01002 20.0091 1.71944Z" fill="white"/>
<path d="M23.4588 8.50903C23.3725 8.33268 23.2431 8.15632 23.0707 8.06815C22.9413 8.02406 22.8119 7.97997 22.6825 8.02406C22.6394 8.02406 22.5532 8.02406 22.51 8.06815C22.3376 8.15632 22.1651 8.28859 22.0788 8.46494C21.3888 10.1844 20.8714 11.9479 20.5264 13.7555C21.6476 12.3006 22.5963 10.7134 23.4156 9.08218C23.545 8.90582 23.545 8.68538 23.4588 8.50903Z" fill="white"/>
<path d="M31.6095 5.33468C31.2645 5.02606 30.8332 4.8938 30.402 4.8938C29.9708 4.93789 29.5395 5.15833 29.2377 5.51103C26.1328 9.7435 23.0279 14.505 23.1572 15.2104C23.8903 15.2545 28.0733 11.5511 31.7819 7.80362C32.3857 7.05412 32.2994 5.95192 31.6095 5.33468Z" fill="white"/>
<path d="M29.97 15.2986C30.0563 15.1222 30.0563 14.9018 29.97 14.7254C29.8838 14.5491 29.7544 14.3727 29.5819 14.3286C29.4094 14.2405 29.1938 14.2405 29.0213 14.3286C27.4257 15.1663 25.8733 16.0922 24.4502 17.1944C26.2183 16.8858 27.9863 16.3567 29.6681 15.6954C29.7975 15.6072 29.9269 15.4749 29.97 15.2986Z" fill="white"/>
<path d="M35.3604 17.8557V17.8116C30.4874 18.3407 25.2695 19.2224 24.8813 19.7956C25.3126 20.3246 30.5737 20.8978 35.4897 21.1182C35.921 21.1182 36.3091 20.8978 36.611 20.5892C36.9128 20.2806 37.0422 19.8838 37.0422 19.4429C36.9991 18.517 36.266 17.8116 35.3604 17.8557Z" fill="white"/>
<path d="M14.0578 7.97997C14.0147 7.93588 13.9285 7.93588 13.8853 7.93588C13.756 7.93588 13.6266 7.93588 13.4972 7.97997C13.3247 8.06815 13.1954 8.20041 13.1091 8.42085C13.0229 8.59721 13.0229 8.81765 13.1091 8.994C13.9285 10.6693 14.8772 12.2124 15.9122 13.7114C15.5672 11.9038 15.0928 10.1403 14.4459 8.42085C14.4028 8.20041 14.2303 8.06815 14.0578 7.97997Z" fill="white"/>
<path d="M6.29577 4.71743C5.82141 4.67335 5.39018 4.80561 5.04519 5.11423C4.31209 5.73146 4.22584 6.83367 4.82957 7.58317C8.49507 11.3747 12.6349 15.1663 13.368 15.1663C13.4974 14.4609 10.5219 9.65531 7.46011 5.37876C7.11512 4.93787 6.72701 4.71743 6.29577 4.71743Z" fill="white"/>
<path d="M6.89936 15.5631C8.58117 16.2245 10.3061 16.7535 12.0742 17.1503C10.6511 16.0481 9.09866 15.0341 7.50309 14.1964C7.33059 14.1082 7.1581 14.1082 6.9856 14.1523C6.59749 14.2846 6.38187 14.6814 6.51124 15.0782C6.59749 15.2986 6.72686 15.475 6.89936 15.5631Z" fill="white"/>
<path d="M0.516958 17.9439C0.215093 18.2525 -0.000524387 18.6493 -0.000524387 19.0902C-0.0436479 20.016 0.646329 20.7655 1.5088 20.8096C6.42488 20.6773 11.686 20.1924 12.1603 19.6633C11.7722 19.0902 6.55425 18.1202 1.68129 17.503C1.25006 17.503 0.818823 17.6353 0.516958 17.9439Z" fill="white"/>
<path d="M18.5855 17.1944C17.2918 17.1944 16.2568 18.2525 16.2568 19.5752C16.2568 20.8978 17.2918 21.9559 18.5855 21.9559C19.8792 21.9559 20.9142 20.8978 20.9142 19.5752C20.9142 18.2525 19.8792 17.1944 18.5855 17.1944Z" fill="white"/>
</g>
<defs>
<clipPath id="clip0">
<rect width="37" height="22" fill="white"/>
</clipPath>
</defs>
</svg>
