<svg xmlns="http://www.w3.org/2000/svg" width="112.02" height="94.3" viewBox="0 0 112.02 94.3"><defs><style>.cls-1{fill:#bcf8f1;}</style></defs><g id="final_icons" data-name="final icons"><path class="cls-1" d="M59.49,28.22a3.95,3.95,0,0,0-7.89,0C52.41,40.16,54,53,55.34,54.06,56.66,53,58.47,40.2,59.49,28.22Z"/><path class="cls-1" d="M67.53,43.57a1.69,1.69,0,0,0-.88-1,1.72,1.72,0,0,0-.87-.14,1.58,1.58,0,0,0-.43.1,1.71,1.71,0,0,0-1,.89,69.1,69.1,0,0,0-3.59,12,72,72,0,0,0,6.73-10.61A1.79,1.79,0,0,0,67.53,43.57Z"/><path class="cls-1" d="M86.36,36.36a3.89,3.89,0,0,0-5.54.37c-7.21,9.6-14.39,20.38-14.08,22,1.68.1,11.44-8.31,20-16.84A4,4,0,0,0,86.36,36.36Z"/><path class="cls-1" d="M82.61,59a1.75,1.75,0,0,0,0-1.31,1.62,1.62,0,0,0-.94-.91,1.66,1.66,0,0,0-1.31,0,71.22,71.22,0,0,0-10.61,6.52,68.65,68.65,0,0,0,12.09-3.37A1.73,1.73,0,0,0,82.61,59Z"/><path class="cls-1" d="M95.07,64.75v-.1c-11.3,1.2-23.39,3.2-24.32,4.46,1,1.23,13.21,2.5,24.59,3a3.76,3.76,0,0,0,2.57-1.19,3.68,3.68,0,0,0,1-2.55A3.76,3.76,0,0,0,95.07,64.75Z"/><path class="cls-1" d="M45.7,42.4a2.16,2.16,0,0,0-.44-.1,1.54,1.54,0,0,0-.87.13,1.67,1.67,0,0,0-.91,1,1.65,1.65,0,0,0,0,1.27A71.49,71.49,0,0,0,50,55.36a70.12,70.12,0,0,0-3.37-12A1.72,1.72,0,0,0,45.7,42.4Z"/><path class="cls-1" d="M27.65,34.93h0a3.95,3.95,0,0,0-3.37,6.46C32.7,50,42.31,58.56,44,58.56c.33-1.64-6.65-12.54-13.71-22.24A3.86,3.86,0,0,0,27.65,34.93Z"/><path class="cls-1" d="M29.06,59.56a71.52,71.52,0,0,0,12.05,3.57,70.23,70.23,0,0,0-10.59-6.69,1.77,1.77,0,0,0-1.2-.06,1.74,1.74,0,0,0-.26,3.18Z"/><path class="cls-1" d="M14.3,65a3.64,3.64,0,0,0-1.21,2.58,3.73,3.73,0,0,0,3.51,3.92c11.4-.33,23.62-1.39,24.65-2.59C40.32,67.58,28.27,65.4,17,64A3.76,3.76,0,0,0,14.3,65Z"/><path class="cls-1" d="M56.23,63.3a5.44,5.44,0,1,0,5.44,5.44A5.43,5.43,0,0,0,56.23,63.3Z"/></g></svg>