<svg width="33" height="26" viewBox="0 0 33 26" fill="none" xmlns="http://www.w3.org/2000/svg">
<g clip-path="url(#clip0)">
<path d="M19.2195 23.1974H7.94141V24.2441H19.2195V23.1974Z" fill="white"/>
<path d="M1.33468 17.9299V1.35065H25.3589V12.426L26.6936 13.6416V0.911688C26.6936 0.405195 26.2932 0 25.7927 0H0.90091C0.400404 0 0 0.405195 0 0.911688V18.3688C0 18.8753 0.400404 19.2805 0.90091 19.2805H10.544V22.4545H16.6835V19.2805H20.3873L19.186 17.9299H1.33468ZM15.3488 21.0701H11.8787V19.3481H15.3488V21.0701Z" fill="white"/>
<path d="M32.0991 20.8675L22.6563 12.0545C23.0567 11.1091 23.1901 10.0623 23.09 9.04932C22.8231 6.21296 20.5875 3.84932 17.7847 3.4779C17.2174 3.41036 16.6168 3.41036 16.0496 3.4779C15.6158 3.54543 15.2821 3.81556 15.1487 4.22075C15.0152 4.62595 15.1153 5.06491 15.4156 5.3688L17.9181 7.90127L17.3509 10.1298L15.1487 10.7039L12.6795 8.2727C12.3792 7.96881 11.9454 7.86751 11.5117 8.00257C11.1113 8.13764 10.8109 8.50907 10.7776 8.91426C10.6775 9.75842 10.7442 10.6363 11.0112 11.4805C11.7119 13.8104 13.7139 15.5324 16.0496 15.8701C17.1173 16.0052 18.1851 15.9039 19.1861 15.4987L27.9282 25.0883C28.4621 25.6623 29.1628 26 29.9303 26C29.9636 26 29.9636 26 29.997 26C30.7311 26 31.4652 25.6961 31.999 25.1558L32.1992 24.9532C32.7331 24.413 33.0334 23.6701 33.0334 22.8935C33 22.1169 32.6664 21.4078 32.0991 20.8675ZM31.2316 24.0078L31.0314 24.2104C30.7311 24.5143 30.364 24.6493 29.9636 24.6493C29.5632 24.6493 29.1962 24.4805 28.8959 24.1766L19.5197 13.8441L19.086 14.0805C18.2184 14.5195 17.2508 14.6883 16.2831 14.5532C14.448 14.2831 12.8797 12.9324 12.3125 11.1091C12.1456 10.6026 12.0789 10.0961 12.1123 9.58958L14.7483 12.2571L18.452 11.2779L19.4196 7.52984L16.6835 4.76101C16.9839 4.76101 17.2842 4.76101 17.5845 4.79478C19.7867 5.09867 21.5218 6.92205 21.7553 9.15062C21.8554 10.0961 21.6552 11.0415 21.2548 11.8857L21.0213 12.3584L31.1982 21.8467C31.4985 22.1169 31.6654 22.4883 31.6654 22.9272C31.6987 23.3324 31.5319 23.7376 31.2316 24.0078Z" fill="white"/>
<path d="M29.73 23.4675C30.117 23.4675 30.4307 23.1501 30.4307 22.7584C30.4307 22.3668 30.117 22.0493 29.73 22.0493C29.343 22.0493 29.0293 22.3668 29.0293 22.7584C29.0293 23.1501 29.343 23.4675 29.73 23.4675Z" fill="white"/>
</g>
<defs>
<clipPath id="clip0">
<rect width="33" height="26" fill="white"/>
</clipPath>
</defs>
</svg>
