<svg width="26" height="28" viewBox="0 0 26 28" fill="none" xmlns="http://www.w3.org/2000/svg">
<path d="M1.22396 24.2281V7.12406H5.96288C6.84162 7.12406 7.56345 6.40225 7.56345 5.52351V1.25534H18.3908V13.7774H19.6461V0.533506C19.6461 0.251053 19.3951 0 19.1126 0H6.59056L0 5.99426V24.95C0 25.2324 0.251068 25.4835 0.53352 25.4835H12.8673L12.0827 24.2281H1.22396ZM6.3081 1.91439V5.49213C6.3081 5.68043 6.15119 5.83734 5.96288 5.83734H1.97716L6.3081 1.91439Z" fill="white"/>
<path d="M24.2908 21.9371C24.2908 21.7802 24.3222 21.6547 24.3222 21.4978C24.3222 21.2781 24.3222 21.0584 24.2908 20.8701L25.452 19.6775C25.5461 19.5833 25.5775 19.4264 25.5147 19.3009L24.2594 17.1354C24.1966 17.0413 24.1025 16.9785 23.977 16.9785C23.9456 16.9785 23.9456 16.9785 23.9142 16.9785L22.1567 17.3865C21.9056 17.1982 21.6232 17.0727 21.3407 16.9471L20.87 15.2524C20.8386 15.1269 20.7131 15.0327 20.5561 15.0327H18.0455C17.9199 15.0327 17.7944 15.1269 17.7316 15.2524L17.1981 17.0099C16.9156 17.1354 16.6646 17.2923 16.4135 17.4493L14.6874 17.0099C14.656 17.0099 14.6246 17.0099 14.5933 17.0099C14.4677 17.0099 14.3736 17.0727 14.3108 17.1668L13.0555 19.3323C12.9927 19.4578 12.9927 19.6147 13.0868 19.7089L14.2794 20.9956C14.248 21.1839 14.248 21.3722 14.248 21.5605C14.248 21.7174 14.248 21.8743 14.2794 22.0313L13.1182 23.2239C13.0241 23.318 12.9927 23.4749 13.0555 23.6004L14.3108 25.7659C14.3736 25.8601 14.4677 25.9228 14.5933 25.9228C14.6246 25.9228 14.6246 25.9228 14.656 25.9228L16.2566 25.5776C16.5704 25.8287 16.9156 26.017 17.2923 26.1739L17.7002 27.6803C17.7316 27.8058 17.8572 27.9 18.0141 27.9H20.5248C20.6503 27.9 20.7758 27.8058 20.8386 27.6803L21.3093 26.1425C21.686 25.9856 22.0312 25.7659 22.345 25.5148L23.8828 25.9228C23.9142 25.9228 23.9456 25.9228 23.977 25.9228C24.1025 25.9228 24.1966 25.8601 24.2594 25.7659L25.5147 23.6004C25.5775 23.4749 25.5775 23.318 25.4834 23.2239L24.2908 21.9371ZM23.0354 20.9956C23.0668 21.1525 23.0668 21.3095 23.0668 21.4664C23.0668 21.5605 23.0668 21.6861 23.0354 21.8116L22.9727 22.3765L23.3493 22.7845L24.0397 23.5063L23.4748 24.4792L22.6275 24.2595L22.0312 24.1026L21.529 24.4792C21.278 24.6675 21.0269 24.8244 20.7444 24.95L20.2109 25.1696L20.054 25.7032L19.7716 26.5819H18.6417L18.4221 25.7345L18.2651 25.1696L17.7316 24.9186C17.4492 24.793 17.1981 24.6361 16.947 24.4792L16.4763 24.134L15.9114 24.2595L15.0012 24.4792L14.4363 23.5063L15.1268 22.8159L15.5348 22.4079L15.472 21.843C15.472 21.7174 15.4406 21.5919 15.4406 21.4978C15.4406 21.3722 15.4406 21.2153 15.472 21.0584L15.5348 20.4935L15.1582 20.0855L14.4363 19.3009L15.0012 18.328L16.0369 18.6104L16.6018 18.7674L17.0726 18.4222C17.2609 18.2966 17.4492 18.1711 17.6688 18.0769L18.171 17.8573L18.3279 17.3237L18.6731 16.2253H19.8029L20.0854 17.2296L20.2423 17.7945L20.7758 18.0456C20.9955 18.1397 21.1838 18.2652 21.3721 18.3908L21.8115 18.7046L22.345 18.5791L23.4434 18.328L24.0083 19.3009L23.3179 19.9913L22.8785 20.4307L23.0354 20.9956Z" fill="white"/>
<path d="M19.2697 18.9557C17.9202 18.9557 16.8218 20.0541 16.8218 21.4036C16.8218 22.7531 17.9202 23.8515 19.2697 23.8515C20.6192 23.8515 21.7176 22.7531 21.7176 21.4036C21.7176 20.0541 20.6192 18.9557 19.2697 18.9557ZM19.2697 22.8786C18.4537 22.8786 17.7633 22.2196 17.7633 21.3722C17.7633 20.5562 18.4223 19.8658 19.2697 19.8658C20.1171 19.8658 20.7761 20.5249 20.7761 21.3722C20.7761 22.2196 20.1171 22.8786 19.2697 22.8786Z" fill="white"/>
<path d="M9.88601 12.9928L16.5707 6.30812C16.8218 6.05705 16.8218 5.68043 16.5707 5.42936C16.3196 5.17829 15.943 5.17829 15.692 5.42936L9.44664 11.6747L7.06149 9.28956C6.81042 9.03849 6.40243 9.03849 6.18274 9.28956L3.70344 11.7689C3.45237 12.0199 3.45237 12.3965 3.70344 12.6476C3.95451 12.8987 4.33111 12.8987 4.58218 12.6476L6.62212 10.6077L9.00726 12.9928C9.1328 13.1184 9.28972 13.1811 9.44664 13.1811C9.60356 13.1811 9.76048 13.1184 9.88601 12.9928Z" fill="white"/>
<path d="M9.13245 14.97H3.4834V16.2253H9.13245V14.97Z" fill="white"/>
<path d="M9.13245 18.0456H3.4834V19.3009H9.13245V18.0456Z" fill="white"/>
<path d="M9.13245 21.1211H3.4834V22.3765H9.13245V21.1211Z" fill="white"/>
</svg>
