<?xml version="1.0" encoding="utf-8"?>
<!-- Generator: Adobe Illustrator 24.1.2, SVG Export Plug-In . SVG Version: 6.00 Build 0)  -->
<svg version="1.1" xmlns="http://www.w3.org/2000/svg" xmlns:xlink="http://www.w3.org/1999/xlink" x="0px" y="0px"
	 viewBox="0 0 190.9 190.9" enable-background="new 0 0 190.9 190.9" xml:space="preserve">
<g id="Layer_1">
</g>
<g id="Great">
	<linearGradient id="green-circle_1_" gradientUnits="userSpaceOnUse" x1="27.958" y1="162.9511" x2="162.9511" y2="27.958">
		<stop  offset="0" style="stop-color:#5FC920"/>
		<stop  offset="0.258" style="stop-color:#63CA23"/>
		<stop  offset="0.5422" style="stop-color:#71CE2C"/>
		<stop  offset="0.8377" style="stop-color:#87D33B"/>
		<stop  offset="1" style="stop-color:#96D746"/>
	</linearGradient>
	<circle id="green-circle" fill="url(#green-circle_1_)" cx="95.5" cy="95.5" r="95.5"/>
	<path id="excited-mouth" fill="#315917" d="M127.9,123.4c3.1,0,5.5,2.8,4.9,5.9c-2.1,11.2-9.8,34.4-36.5,34.4
		c-26.6,0-35.3-22.9-38-34.2c-0.7-3.1,1.7-6.1,4.9-6.1H127.9z"/>
	<path id="left-eye_4_" fill="#315917" d="M70,83.6c-2.1,0-3.8-1.6-4-3.7l0,0c0-0.6-1.3-13.9-10.9-13.9c-9.5,0-10.2,13.2-10.2,13.8
		c-0.1,2.2-2,3.9-4.2,3.8c-2.2-0.1-3.9-2-3.8-4.2C37.1,72,41.4,58,55.1,58c13.6,0,18.3,13.9,18.9,21.3c0.2,2.2-1.5,4.1-3.7,4.3
		C70.2,83.6,70.1,83.6,70,83.6z"/>
	<path id="right-eye_4_" fill="#315917" d="M148.2,83.6c-2.1,0-3.8-1.6-4-3.7l0,0c0-0.6-1.3-13.9-10.9-13.9
		c-9.5,0-10.2,13.2-10.2,13.8c-0.1,2.2-2,3.9-4.2,3.8c-2.2-0.1-3.9-2-3.8-4.2c0.3-7.4,4.6-21.4,18.2-21.4
		c13.6,0,18.3,13.9,18.9,21.3c0.2,2.2-1.5,4.1-3.7,4.3C148.4,83.6,148.3,83.6,148.2,83.6z"/>
</g>
<g id="Good">
</g>
<g id="Average">
</g>
<g id="Poor">
</g>
<g id="VeryPoor">
</g>
</svg>
