<?xml version="1.0" encoding="utf-8"?>
<!-- Generator: Adobe Illustrator 24.1.2, SVG Export Plug-In . SVG Version: 6.00 Build 0)  -->
<svg version="1.1" xmlns="http://www.w3.org/2000/svg" xmlns:xlink="http://www.w3.org/1999/xlink" x="0px" y="0px"
	 viewBox="0 0 190.9 190.9" enable-background="new 0 0 190.9 190.9" xml:space="preserve">
<g id="Layer_1">
</g>
<g id="Great">
</g>
<g id="Good">
</g>
<g id="Average">
	<linearGradient id="yellow-circle_1_" gradientUnits="userSpaceOnUse" x1="27.958" y1="162.9511" x2="162.9511" y2="27.958">
		<stop  offset="0" style="stop-color:#F6E039"/>
		<stop  offset="0.3652" style="stop-color:#F6E03C"/>
		<stop  offset="0.6128" style="stop-color:#F7E245"/>
		<stop  offset="0.825" style="stop-color:#F7E454"/>
		<stop  offset="1" style="stop-color:#F8E767"/>
	</linearGradient>
	<circle id="yellow-circle" fill="url(#yellow-circle_1_)" cx="95.5" cy="95.5" r="95.5"/>
	<ellipse id="right-eye_2_" fill="#A5880E" cx="57.3" cy="79.6" rx="10.7" ry="12.1"/>
	<ellipse id="left-eye_2_" fill="#A5880E" cx="133.7" cy="79.6" rx="10.7" ry="12.1"/>
	<path id="meh-mouth" fill="#A5880E" d="M94.7,149.7c-13.1,0-26.5-1.3-27.1-1.3c-2.2-0.2-3.8-2.2-3.6-4.4c0.2-2.2,2.2-3.8,4.4-3.6
		c0.1,0,13.6,1.3,26.3,1.3c22.1,0,25.1-10.8,25.2-11.2c0.5-2.2,2.6-3.5,4.7-3.1c2.2,0.5,3.5,2.6,3.1,4.8
		C127.5,132.9,123.7,149.7,94.7,149.7z"/>
</g>
<g id="Poor">
</g>
<g id="VeryPoor">
</g>
</svg>
