<?xml version="1.0" encoding="utf-8"?>
<!-- Generator: Adobe Illustrator 24.1.2, SVG Export Plug-In . SVG Version: 6.00 Build 0)  -->
<svg version="1.1" xmlns="http://www.w3.org/2000/svg" xmlns:xlink="http://www.w3.org/1999/xlink" x="0px" y="0px"
	 viewBox="0 0 190.9 190.9" enable-background="new 0 0 190.9 190.9" xml:space="preserve">
<g id="Layer_1">
</g>
<g id="Great">
</g>
<g id="Good">
</g>
<g id="Average">
</g>
<g id="Poor">
</g>
<g id="VeryPoor">
	<linearGradient id="red-circle_1_" gradientUnits="userSpaceOnUse" x1="27.958" y1="162.9511" x2="162.9511" y2="27.958">
		<stop  offset="4.830267e-02" style="stop-color:#FC504A"/>
		<stop  offset="1" style="stop-color:#FE6E3A"/>
	</linearGradient>
	<circle id="red-circle" fill="url(#red-circle_1_)" cx="95.5" cy="95.5" r="95.5"/>
	<path id="angry-mouth" fill="#771212" d="M126.4,156.7c3.9,0,6.8-3.7,5.8-7.5c-3-11.7-12.1-32.8-37.6-32.8
		c-25.8,0-33.8,21.5-36.3,33.1c-0.8,3.7,2.1,7.2,5.9,7.2H126.4z"/>
	<path id="right-eye" fill="#771212" d="M148.7,65.4c-0.8-2.1-3-3.1-5.1-2.4l-24.5,8.9c-2.1,0.8-3.1,3-2.4,5.1
		c0.6,1.6,2.1,2.6,3.8,2.6c0.5,0,0.9-0.1,1.4-0.2L123,79c0,0.2,0,0.4,0,0.6c0,6.7,4.8,12.1,10.7,12.1c5.9,0,10.7-5.4,10.7-12.1
		c0-2.8-0.9-5.5-2.3-7.5l4.2-1.5C148.3,69.8,149.4,67.5,148.7,65.4z"/>
	<path id="left-eye" fill="#771212" d="M42.2,65.4c0.8-2.1,3-3.1,5.1-2.4l24.5,8.9c2.1,0.8,3.1,3,2.4,5.1c-0.6,1.6-2.1,2.6-3.8,2.6
		c-0.5,0-0.9-0.1-1.4-0.2L67.9,79c0,0.2,0,0.4,0,0.6c0,6.7-4.8,12.1-10.7,12.1s-10.7-5.4-10.7-12.1c0-2.8,0.9-5.5,2.3-7.5l-4.2-1.5
		C42.5,69.8,41.4,67.5,42.2,65.4z"/>
</g>
</svg>
