<svg width="29" height="30" viewBox="0 0 29 30" fill="none" xmlns="http://www.w3.org/2000/svg">
<path d="M25.0516 19.654C24.6772 19.654 24.3028 19.7232 23.9284 19.827L22.5669 16.7474V13.6678C22.5669 13.0796 22.1244 12.6298 21.5458 12.6298H15.2488V7.78547H17.8357C18.2101 7.78547 18.5164 7.47405 18.5164 7.09343V0.692042C18.5164 0.311419 18.2101 0 17.8357 0H11.3005C10.9261 0 10.6197 0.311419 10.6197 0.692042V7.09343C10.6197 7.47405 10.9261 7.78547 11.3005 7.78547H13.8873V12.6298H7.45423C6.87559 12.6298 6.43311 13.0796 6.43311 13.6678V16.2976L6.19484 16.8512L4.90142 19.7924C4.59508 19.7232 4.28872 19.654 3.94835 19.654C1.76994 19.654 0 21.4533 0 23.6678C0 25.8823 1.76994 27.6817 3.94835 27.6817C6.12675 27.6817 7.89672 25.8823 7.89672 23.6678C7.89672 22.2837 7.21595 21.038 6.16079 20.346L7.55634 17.1626H13.7512V22.0415C11.9132 22.3529 10.4836 24.0138 10.4836 25.9862C10.4836 28.2007 12.2535 30 14.4319 30C16.6103 30 18.3803 28.2007 18.3803 25.9862C18.3803 24.0138 16.9847 22.3529 15.1127 22.0415V17.1626H21.2735L22.7031 20.4844C21.716 21.2111 21.1033 22.3876 21.1033 23.7024C21.1033 25.917 22.8732 27.7163 25.0516 27.7163C27.23 27.7163 29 25.917 29 23.7024C29 21.4533 27.23 19.654 25.0516 19.654ZM12.0153 1.34945H17.189V6.36675H12.0153V1.34945ZM3.9824 26.2976C2.55282 26.2976 1.39553 25.1211 1.39553 23.6678C1.39553 22.2145 2.55282 21.038 3.9824 21.038C5.41198 21.038 6.56924 22.2145 6.56924 23.6678C6.56924 25.1211 5.41198 26.2976 3.9824 26.2976ZM17.0188 25.9516C17.0188 27.4049 15.8615 28.5813 14.4319 28.5813C13.0024 28.5813 11.8451 27.4049 11.8451 25.9516C11.8451 24.4983 13.0024 23.3218 14.4319 23.3218C15.8615 23.3218 17.0188 24.4983 17.0188 25.9516ZM7.82864 13.9792H21.2394V15.744H7.82864V13.9792ZM25.0516 26.2976C23.6221 26.2976 22.4648 25.1211 22.4648 23.6678C22.4648 22.2145 23.6221 21.038 25.0516 21.038C26.4812 21.038 27.6385 22.2145 27.6385 23.6678C27.6385 25.1211 26.4812 26.2976 25.0516 26.2976Z" fill="white"/>
</svg>
