<svg width="35" height="32" viewBox="0 0 35 32" fill="none" xmlns="http://www.w3.org/2000/svg">
<path fill-rule="evenodd" clip-rule="evenodd" d="M22.9687 1.38204C23.3096 1.1327 23.3839 0.654216 23.1345 0.313319C22.8852 -0.0275784 22.4067 -0.101801 22.0658 0.147539L11.4541 7.9092L7.37411 6.01886C7.12197 5.90203 6.8263 5.93118 6.60183 6.09499L0.314001 10.6834C-0.0271714 10.9324 -0.101921 11.4108 0.147042 11.7519C0.396006 12.0931 0.874405 12.1679 1.21558 11.9189L7.13968 7.5959L11.2201 9.48649C11.4726 9.60344 11.7686 9.57409 11.9931 9.40986L22.9687 1.38204ZM23.9617 10.6214H22.4322V3.48387H23.9617V10.6214ZM13.1704 25.4063V18.6969C13.0866 18.5577 13.08 18.389 13.1704 18.2688L13.1704 18.2686V11.1312H11.641V25.4063H13.1704ZM16.9092 7.05264V13.8861L18.4386 14.3127V7.05264H16.9092ZM6.03291 10.4515V25.4063H7.56238V10.4515H6.03291ZM0.679758 25.4063V13.8503H2.20923V25.4063H0.679758ZM31.5494 28.8051C31.6854 28.8051 31.8213 28.7371 31.8893 28.6012L33.9966 24.9644C34.0985 24.8285 34.0645 24.6245 33.9286 24.4886L31.9913 22.3813L31.9913 22.3812C32.0253 22.0754 32.0592 21.7695 32.0592 21.4636C32.0592 21.2257 32.0592 20.9538 32.0252 20.7159L33.9626 18.7446C34.0985 18.6086 34.0985 18.4387 34.0306 18.2687L31.9233 14.632C31.8553 14.496 31.7193 14.4281 31.5834 14.4281H31.4814L28.8643 15.0399C28.3545 14.666 27.8107 14.3261 27.2329 14.0882L26.5531 11.5731C26.5191 11.4031 26.3492 11.3012 26.1793 11.3012H21.9647C21.7948 11.3012 21.6248 11.4031 21.5908 11.5731L20.8091 14.1222C20.1973 14.3941 19.6535 14.7 19.1437 15.1078L16.6286 14.4621H16.5266C16.3906 14.4621 16.2547 14.53 16.1867 14.666L14.0794 18.3027C13.9775 18.4387 14.0115 18.6426 14.1474 18.7786L16.0508 20.8179C16.0168 21.0558 16.0168 21.2937 16.0168 21.5316C16.0168 21.8715 16.0508 22.2113 16.0847 22.5512L16.0848 22.5513L14.1474 24.5226C14.0115 24.6585 14.0115 24.8285 14.0794 24.9984L16.1867 28.6352C16.2547 28.7711 16.3906 28.8391 16.5266 28.8391H16.6286L19.5176 28.1933C19.9254 28.4652 20.3673 28.7031 20.8091 28.9071L21.5908 31.7281C21.6248 31.898 21.7948 32 21.9647 32H26.1793C26.3492 32 26.5191 31.898 26.5531 31.7281L27.4368 28.8391C27.8787 28.6352 28.2865 28.3972 28.6944 28.1253L31.5154 28.8731C31.4814 28.8051 31.5154 28.8051 31.5494 28.8051ZM28.9663 26.7658L28.3545 26.5959L27.8447 26.9697C27.5048 27.2077 27.1649 27.4116 26.7911 27.5815L26.2472 27.8194L26.0773 28.3972L25.3975 30.5725H22.6445L22.0667 28.4652L21.8967 27.8534L21.285 27.6155C20.9111 27.4456 20.5372 27.2416 20.1973 27.0037L19.7215 26.6638L19.1437 26.7998L16.9345 27.3096L15.5409 24.9304L16.9684 23.4689L17.4443 22.9931L17.3763 22.3473L17.366 22.2556L17.366 22.2556C17.3358 21.9865 17.3083 21.742 17.3083 21.4976C17.3083 21.3277 17.3083 21.1238 17.3423 20.9198L17.4103 20.308L17.0024 19.8662L15.5749 18.3367L16.9684 15.9575L18.7698 16.4334L19.4156 16.6033L19.9594 16.1955C20.4013 15.8556 20.8431 15.5837 21.3529 15.3797L21.9307 15.1418L22.1007 14.564L22.6445 12.6607H25.3975L25.9074 14.4621L26.0773 15.0738L26.6891 15.3458C27.1649 15.5497 27.6408 15.8216 28.0486 16.1615L28.5584 16.5353L29.1702 16.3994L31.1076 15.9575L32.5011 18.3367L31.0736 19.7982L30.6317 20.2401L30.6997 20.8519C30.7337 21.0557 30.7337 21.2596 30.7337 21.4635V21.4636V21.4638C30.7337 21.7017 30.7337 21.9735 30.6997 22.2454L30.6317 22.8572L31.0396 23.299L32.5011 24.8965L31.1076 27.2756L28.9663 26.7658ZM20.0954 21.6336C20.0954 19.4583 21.8628 17.7249 24.004 17.7249C26.1453 17.7249 27.8787 19.4583 27.9127 21.6336C27.9127 23.8088 26.1793 25.5422 24.004 25.5422C21.8288 25.5422 20.0954 23.7749 20.0954 21.6336ZM21.4549 21.5996C21.4549 22.9931 22.6105 24.1487 24.004 24.1487C25.3975 24.1487 26.5192 23.0271 26.5531 21.5996C26.5531 20.2061 25.3975 19.0505 24.004 19.0505C22.6105 19.0505 21.4549 20.2061 21.4549 21.5996Z" fill="white"/>
</svg>
