<svg width="33" height="24" viewBox="0 0 33 24" fill="none" xmlns="http://www.w3.org/2000/svg">
<path d="M3.43179 16.768C3.43179 17.0019 3.58776 17.1579 3.78274 17.2359L3.86073 17.2749C3.97772 17.3139 6.70739 18.0938 9.39807 18.0938C12.0497 18.0938 14.8184 17.3139 14.9354 17.2749L15.0134 17.2359C15.2084 17.1579 15.3643 17.0019 15.3643 16.768V16.69C15.3643 16.612 15.4033 14.8182 14.2725 13.8433C14.1945 13.7653 13.9215 13.4924 11.6208 12.4785C12.0887 11.8936 12.4007 11.1917 12.5177 10.4117C12.6347 9.63184 12.6347 7.87705 11.6988 6.7072C11.1529 6.04428 10.3729 5.69333 9.39807 5.69333C8.42318 5.69333 7.68226 6.04428 7.09733 6.7072C6.12245 7.83806 6.12246 9.63184 6.27844 10.4117C6.39543 11.1917 6.70739 11.8936 7.17533 12.4785C4.87461 13.4924 4.64063 13.7653 4.56264 13.8433C3.39278 14.8182 3.43179 16.612 3.43179 16.69V16.768ZM8.03323 7.4871C8.34519 7.09715 8.77414 6.94117 9.39807 6.94117C9.983 6.94117 10.4119 7.13614 10.7629 7.4871C11.3868 8.22801 11.4258 9.63185 11.3088 10.1778C11.0359 11.7376 9.944 12.5175 9.39807 12.5175C8.85213 12.5175 7.76025 11.7376 7.48729 10.1778C7.3703 9.63185 7.40931 8.22801 8.03323 7.4871ZM5.34255 14.7402L5.38156 14.7012C5.57653 14.5452 6.78538 13.9603 8.15021 13.3754C8.96911 13.8823 9.78802 13.8823 10.5679 13.3754C11.9328 13.9993 13.1416 14.5842 13.3366 14.7012L13.4146 14.7792C13.8435 15.1302 13.9995 15.7931 14.0775 16.2221C13.1806 16.456 11.2309 16.885 9.35908 16.885C7.5263 16.885 5.53753 16.456 4.64064 16.2221C4.75762 15.7541 4.9136 15.0912 5.34255 14.7402Z" fill="white"/>
<path d="M0 0V23.7481H32.834V0H0ZM31.2742 22.1883H1.55981V1.55981H31.2742V22.1883Z" fill="white"/>
<path d="M28.4667 6.31723H19.0688V7.87704H28.4667V6.31723Z" fill="white"/>
<path d="M28.4667 11.1137H19.0688V12.6735H28.4667V11.1137Z" fill="white"/>
<path d="M28.4667 15.8711H19.0688V17.4309H28.4667V15.8711Z" fill="white"/>
</svg>
