<svg width="31" height="29" viewBox="0 0 31 29" fill="none" xmlns="http://www.w3.org/2000/svg">
<path d="M30.3164 2.12876H29.1202H16.0981V0.697954C16.0981 0.314079 15.7905 0 15.4146 0C15.0386 0 14.731 0.314079 14.731 0.697954V2.12876H1.70893H0.683572C0.307608 2.12876 0 2.44284 0 2.82671C0 3.21059 0.307608 3.52467 0.683572 3.52467H1.70893V19.787C1.70893 22.0205 3.48622 23.8351 5.67365 23.8351H13.8423L9.94598 27.8135C9.67255 28.0927 9.67255 28.5114 9.94598 28.7906C10.2194 29.0698 10.6295 29.0698 10.903 28.7906L14.7993 24.8123V26.627C14.7993 27.0108 15.1069 27.3249 15.4829 27.3249C15.8589 27.3249 16.1665 27.0108 16.1665 26.627V24.7425L20.4046 28.7906C20.5413 28.9302 20.7122 28.9651 20.8831 28.9651C21.054 28.9651 21.2591 28.8953 21.3958 28.7557C21.6692 28.4765 21.6351 28.0229 21.3616 27.7786L17.226 23.8351H25.1213C27.3087 23.8351 29.086 22.0205 29.086 19.787V3.52467H30.2822C30.6582 3.52467 30.9658 3.21059 30.9658 2.82671C30.9658 2.44284 30.6924 2.12876 30.3164 2.12876ZM27.753 19.7521C27.753 21.2178 26.591 22.4043 25.1555 22.4043H5.67365C4.23815 22.4043 3.07608 21.2178 3.07608 19.7521V3.52467H27.753V19.7521Z" fill="white"/>
<path d="M25.1211 6.80505H9.84326V8.20096H25.1211V6.80505Z" fill="white"/>
<path d="M7.75873 6.49097H5.91309V8.37544H7.75873V6.49097Z" fill="white"/>
<path d="M25.1211 11.3766H9.84326V12.7726H25.1211V11.3766Z" fill="white"/>
<path d="M7.75873 11.0626H5.91309V12.947H7.75873V11.0626Z" fill="white"/>
<path d="M25.1211 15.9832H9.84326V17.3791H25.1211V15.9832Z" fill="white"/>
<path d="M7.75873 15.6691H5.91309V17.5535H7.75873V15.6691Z" fill="white"/>
</svg>
