<?xml version="1.0" encoding="utf-8"?>
<!-- Generator: Adobe Illustrator 24.1.2, SVG Export Plug-In . SVG Version: 6.00 Build 0)  -->
<svg version="1.1" id="Layer_1" xmlns="http://www.w3.org/2000/svg" xmlns:xlink="http://www.w3.org/1999/xlink" x="0px" y="0px"
	 viewBox="0 0 505.9 880" style="enable-background:new 0 0 505.9 880;" xml:space="preserve">
<style type="text/css">
	.st0{opacity:0.9;}
	.st1{fill:none;}
	.st2{fill:#FFFFFF;}
</style>
<g class="st0">
	<polygon class="st1" points="506.5,0 506,0 506.5,0.9 	"/>
	<polygon class="st2" points="506.5,207.2 506.5,0.9 506,0 386.4,207.2 	"/>
	<polygon class="st2" points="506.5,425 506.5,218 387.1,218 	"/>
	<polygon class="st2" points="377.6,224.1 258,431.3 497,431.3 	"/>
	<polygon class="st2" points="386.4,655.4 506.5,655.4 506.5,449.6 505.8,448.4 	"/>
	<polygon class="st2" points="496.3,442.1 257.5,442.1 376.9,649.1 	"/>
	<polygon class="st2" points="248,448.4 128.4,655.4 367.4,655.4 	"/>
	<polygon class="st2" points="506.4,873.4 506.5,873.1 506.5,666.2 387,666.2 	"/>
	<polygon class="st2" points="258,879.5 496.8,879.5 377.4,672.5 	"/>
	<polygon class="st2" points="129.1,666.2 248.5,873.4 367.9,666.2 	"/>
	<polygon class="st2" points="119.6,672.5 0,879.5 239,879.5 	"/>
</g>
</svg>
