<svg width="509" height="880" viewBox="0 0 509 880" fill="none" xmlns="http://www.w3.org/2000/svg">
<path d="M-116.46 207.208L2.939 0L122.518 207.208H-116.46Z" fill="white"/>
<path d="M-117 217.99L2.39899 425.018L121.798 217.99H-117Z" fill="white"/>
<path d="M11.9293 431.308L131.328 224.1L250.907 431.308H11.9293Z" fill="white"/>
<path d="M-116.281 655.408L3.11821 448.381L122.517 655.408H-116.281Z" fill="white"/>
<path d="M12.6486 442.091L132.048 649.119L251.447 442.091H12.6486Z" fill="white"/>
<path d="M141.578 655.408L260.977 448.381L380.556 655.408H141.578Z" fill="white"/>
<path d="M-116.82 666.191L2.57881 873.399L121.978 666.191H-116.82Z" fill="white"/>
<path d="M12.1091 879.509L131.508 672.481L250.907 879.509H12.1091Z" fill="white"/>
<path d="M141.039 666.191L260.438 873.399L379.836 666.191H141.039Z" fill="white"/>
<path d="M269.968 879.509L389.367 672.481L508.946 879.509H269.968Z" fill="white"/>
</svg>
