<svg width="28" height="21" viewBox="0 0 28 21" fill="none" xmlns="http://www.w3.org/2000/svg">
<path d="M27.3103 0H26.6207H1.37931H0.689655C0.310345 0 0 0.301435 0 0.669856V1.33971V19.6603V20.3301C0 20.6986 0.310345 21 0.689655 21H1.37931H26.6207H27.3103C27.6897 21 28 20.6986 28 20.3301V19.6603V1.33971V0.669856C28 0.301435 27.6897 0 27.3103 0ZM26.6207 19.6603H1.37931V1.33971H26.6207V19.6603Z" fill="white"/>
<path d="M10.2068 15.3062L6.86197 12.3923L3.34473 16.1435L4.37921 17.0478L6.96542 14.3014L10.3102 17.2153L13.8275 13.2631L12.793 12.3923L10.2068 15.3062Z" fill="white"/>
<path d="M20.3446 14.4354H18.9653V17.0144H20.3446V14.4354Z" fill="white"/>
<path d="M22.5863 13.2632H21.207V17.0144H22.5863V13.2632Z" fill="white"/>
<path d="M18.1723 11.9235H16.793V17.0144H18.1723V11.9235Z" fill="white"/>
<path d="M24.724 15.3062H23.3447V17.0143H24.724V15.3062Z" fill="white"/>
<path d="M24.8621 3.38281H3.10352V9.41152H24.8621V3.38281ZM23.6552 8.23927H4.31041V4.55506H23.6552V8.23927Z" fill="white"/>
</svg>
